<svg width="14" height="14" viewBox="0 0 14 14" fill="none" xmlns="http://www.w3.org/2000/svg">
<path d="M7.00004 0.333344C3.32004 0.333344 0.333374 3.32001 0.333374 7.00001C0.333374 10.68 3.32004 13.6667 7.00004 13.6667C10.68 13.6667 13.6667 10.68 13.6667 7.00001C13.6667 3.32001 10.68 0.333344 7.00004 0.333344ZM7.66671 10.3333C7.66671 10.7015 7.36823 11 7.00004 11C6.63185 11 6.33337 10.7015 6.33337 10.3333C6.33337 9.96515 6.63185 9.66668 7.00004 9.66668C7.36823 9.66668 7.66671 9.96515 7.66671 10.3333ZM7.66671 7.66668C7.66671 8.03487 7.36823 8.33334 7.00004 8.33334C6.63185 8.33334 6.33337 8.03487 6.33337 7.66668V3.66668C6.33337 3.29849 6.63185 3.00001 7.00004 3.00001C7.36823 3.00001 7.66671 3.29849 7.66671 3.66668V7.66668Z" fill="#C82F04"/>
</svg>
